<?xml version="1.0" encoding="utf-8"?>
<!-- Generator: Adobe Illustrator 26.5.1, SVG Export Plug-In . SVG Version: 6.00 Build 0)  -->
<svg version="1.1" baseProfile="tiny" xmlns="http://www.w3.org/2000/svg" xmlns:xlink="http://www.w3.org/1999/xlink" x="0px"
	 y="0px" viewBox="0 0 1920 451" overflow="visible" xml:space="preserve">
<g id="Layer_1">
</g>
<g id="Layer_2">
	<g>
		<path fill="#FFFFFF" d="M106.2,322.8c-22.6,0-40.1-7.1-52.5-21.2C41.2,287.5,35,268.7,35,245.3c0-23.5,6.9-42.2,20.7-56.4
			c13.8-14.1,31.9-21.2,54.3-21.2c15.3,0,28.9,2.8,40.8,8.3v23.3c-13.8-6.8-26.9-10.1-39.2-10.1c-16.9,0-29.4,5.5-37.5,16.4
			C66,216.6,61.9,229.7,61.9,245c0,17.1,4,30.8,12.1,41c8,10.2,19.9,15.4,35.6,15.4c15.1,0,29.6-4.9,43.6-14.6v22.4
			C139.6,318.2,123.9,322.8,106.2,322.8z"/>
		<path fill="#FFFFFF" d="M186.1,319.2V99.5h27v98.7c4.8-8.7,12.1-15.8,22-21.3c9.8-5.5,20.2-8.2,31-8.2c11.1,0,21.1,2.3,30,7
			c8.9,4.7,15.3,11.8,19.3,21.3c2.9,6.6,4.4,19.1,4.4,37.6v84.7h-26.3v-84.7c0-13.9-1.7-23.9-5-29.8c-5.4-9.7-15.7-14.6-30.7-14.6
			c-6.9,0-13.8,1.8-20.7,5.5c-6.9,3.7-12.7,8.8-17.2,15.4c-4.4,6.6-6.6,15-6.6,25.3v82.9H186.1z"/>
		<path fill="#FFFFFF" d="M486.6,180l28.5-5.7v142.2h-28.5v-16.7c-15.1,14.9-33.2,22.4-54.6,22.4s-39.6-7.5-54.7-22.5
			c-15.2-15-22.7-33.1-22.7-54.4c0-21.1,7.6-39.1,22.7-54.1c15.2-15,33.4-22.5,54.7-22.5s39.5,7.4,54.6,22.1V180z M433.9,298.1
			c14.2,0,26.3-5.1,36.4-15.4c10-10.2,15.1-22.7,15.1-37.4c0-14.5-5-26.9-15.1-37.3c-10-10.3-22.2-15.5-36.4-15.5
			c-14.2,0-26.3,5.2-36.4,15.5c-10,10.3-15.1,22.8-15.1,37.3c0,14.7,5,27.2,15.1,37.4C407.6,292.9,419.7,298.1,433.9,298.1z"/>
		<path fill="#FFFFFF" d="M548.1,129c0-4.8,1.6-8.8,4.9-12.2c3.2-3.4,7.3-5.1,12.1-5.1c4.8,0,8.8,1.7,12.1,5.2
			c3.2,3.5,4.9,7.5,4.9,12.1c0,4.8-1.6,8.8-4.9,12.1c-3.2,3.3-7.3,4.9-12.1,4.9c-4.8,0-8.8-1.6-12.1-4.9
			C549.7,137.8,548.1,133.8,548.1,129z M551.5,168.1l27.3-10.7v161.9h-27.3V168.1z"/>
		<path fill="#FFFFFF" d="M621.1,319.2V171.3h26v26.8c4.6-8.5,12-15.6,22.1-21.2c10.1-5.6,20.7-8.3,31.8-8.3c11.1,0,21.1,2.3,30,7
			c8.9,4.7,15.3,11.8,19.3,21.3c2.9,6.6,4.4,19.1,4.4,37.6v84.7h-26.3v-84.7c0-13.9-1.7-23.9-5-29.8c-5.4-9.7-15.7-14.6-30.7-14.6
			c-6.9,0-13.8,1.8-20.7,5.5c-6.9,3.7-12.7,8.8-17.2,15.4c-4.4,6.6-6.6,15-6.6,25.3v82.9H621.1z"/>
		<path fill="#FFFFFF" d="M958.9,169.2v36.7h-24.8c2.3,1.8,4,4.5,5.2,8.2c1.1,3.7,1.7,7.6,1.7,11.8c0,17.1-7.6,30.2-22.9,39.2
			c-15.3,9-31.2,13.6-47.7,13.6h-3.8c-0.2-0.2-0.4-0.3-0.6-0.3l-6.6-0.3l-16.3,24.7c2.9-1.4,6-2.8,9.1-4.2
			c15.9-7.9,32.6-11.9,50.2-11.9c2.9,0,5.9,0.2,8.8,0.6c20.1,3.8,33.5,14.8,40.1,33.1c0,0.4,0.2,1.6,0.6,3.6c0.4,2,0.7,4.2,0.9,6.6
			c0.2,2.4,0.4,4.5,0.6,6.3v0.9c0,1.4-0.2,2.1-0.6,2.1h-47.4c0-9.3-4.2-14.9-12.5-16.7c-4.8-1.2-9.7-1.8-14.7-1.8
			c-4.2,0-9.8,0.6-16.9,1.8c-7.1,1.2-13.5,2.9-19.1,5.1c-0.4,0.2-1.8,0.9-4.2,2.2c-2.4,1.3-5,2.7-7.7,4.3c-2.5,1.4-4.6,2.6-6.3,3.6
			c-1.7,1-2.6,1.5-2.8,1.5c0-0.2-1.4-1.2-4.1-3.1c-2.7-1.9-5.8-4.1-9.3-6.6c-3.4-2.5-6.6-4.7-9.6-6.7l-4.1-3l24.5-49.5
			c-20.1-10.3-30.1-25.5-30.1-45.6c0-17.3,7.5-31,22.6-41c15.1-10,33.8-15.1,56.1-15.1H958.9z M864.5,249.2
			c14.8,0,22.7-8.2,23.5-24.7c0-14.5-7.8-22.1-23.5-22.7c-7.5,0-13.4,2.3-17.6,6.9c-4.2,4.6-6.3,10.1-6.3,16.7
			C840.7,240,848.6,248,864.5,249.2z"/>
		<path fill="#FFFFFF" d="M1033.9,319.2h-53.9V169.5h53.3V194c4-7.8,10-14.2,18.2-19.2c8.2-5.1,17.6-7.6,28.2-7.6
			c7.7,0,14.4,0.9,20.1,2.8c5.6,1.9,10.5,4.3,14.4,7.3l-25.1,41.4c-9.4-6-18.2-8.9-26.3-8.9c-7.5,0-13.7,2.3-18.5,6.9
			c-4.8,4.6-7.7,9.9-8.8,16.1c-0.6,4.4-1,8.8-1.3,13.3c-0.2,4.5-0.3,8.3-0.3,11.5V319.2z"/>
		<path fill="#FFFFFF" d="M1296.1,244.4c0,22.5-7.8,41-23.4,55.8c-15.6,14.7-36.7,22.1-63.5,22.1c-27,0-48.2-6.9-63.7-20.7
			c-15.5-13.8-23.2-32.5-23.2-56.2c0-15.1,3.5-28.6,10.3-40.4c6.9-11.8,16.8-21.2,29.8-28.2c13-7,28.5-10.4,46.7-10.4
			c28,0,49.5,7.3,64.5,21.8C1288.6,202.5,1296.1,221.3,1296.1,244.4z M1241.8,244.7c0-10.7-2.5-19.8-7.4-27.3
			c-4.9-7.5-13.2-11.2-24.9-11.2c-11.5,0-19.8,3.7-24.9,11.2c-5.1,7.5-7.7,16.5-7.7,27.3c0,11.5,2.7,20.7,8.2,27.6
			c5.4,6.9,13.7,10.3,24.8,10.3c11.1,0,19.2-3.6,24.3-10.9C1239.2,264.4,1241.8,255.4,1241.8,244.7z"/>
		<path fill="#FFFFFF" d="M1413.3,319.2h-50.5l-51.7-149.4h58.3c8.8,28.2,15.1,49.1,18.8,62.6c3.8,13.5,6.3,23.3,7.5,29.2
			c1.3-6.2,3.8-16,7.7-29.4c3.9-13.4,10.2-34.2,19-62.5h39.5c8.8,28.2,15.1,48.9,18.8,62c3.8,13.1,6.4,23,7.8,29.5
			c1.3-7,3.7-17,7.4-30.1c3.7-13.1,9.9-33.6,18.7-61.4h54.9l-53.3,149.4h-48.9c-8.4-24.8-14.6-43.7-18.7-56.5s-6.9-22.4-8.3-28.8
			c-0.6,1.8-1.3,3.8-1.9,6C1435.5,251.6,1427.1,278.1,1413.3,319.2z"/>
		<path fill="#FFFFFF" d="M1695.9,170.1v37.3h-39.2v111.8h-50.5V132.6l50.5-15.8v53.4H1695.9z"/>
		<path fill="#FFFFFF" d="M1881.3,319.2H1828V236c0-8.7-1.6-16-4.7-21.8c-1.9-2.6-4.5-4.4-7.8-5.5c-3.3-1.1-7-1.6-11-1.6
			c-7.5,0-15.1,3.5-22.6,10.4c-4.4,5.4-6.6,12.1-6.6,20.3v81.4h-53.9V99.5h53.3v92.1c5.6-7.8,13.2-13.8,22.7-18.2
			c9.5-4.4,19.1-6.6,28.7-6.6c13.2,0,23.5,1.8,30.9,5.5c7.4,3.7,12.9,8.5,16.5,14.5c3.3,5.4,5.5,11.4,6.4,18
			c0.9,6.7,1.4,12.6,1.4,17.7V319.2z"/>
	</g>
	<g>
	</g>
	<g>
	</g>
	<g>
	</g>
	<g>
	</g>
	<g>
	</g>
	<g>
	</g>
	<g>
	</g>
	<g>
	</g>
	<g>
	</g>
	<g>
	</g>
	<g>
	</g>
	<g>
	</g>
	<g>
	</g>
	<g>
	</g>
	<g>
	</g>
</g>
</svg>
